<svg width="96" height="96" viewBox="0 0 96 96" fill="none" xmlns="http://www.w3.org/2000/svg">
  <defs>
    <linearGradient id="bridgeGlow" x1="16" y1="68" x2="80" y2="68" gradientUnits="userSpaceOnUse">
      <stop stop-color="#f7b9d5"/>
      <stop offset="0.5" stop-color="#fff1a8"/>
      <stop offset="1" stop-color="#b6dcff"/>
    </linearGradient>
    <linearGradient id="island" x1="48" y1="39" x2="48" y2="86" gradientUnits="userSpaceOnUse">
      <stop stop-color="#b7cc96"/>
      <stop offset="1" stop-color="#a99078"/>
    </linearGradient>
    <filter id="soft" x="-16" y="-16" width="128" height="128" filterUnits="userSpaceOnUse">
      <feDropShadow dx="0" dy="3" stdDeviation="2.5" flood-color="#8d7f7c" flood-opacity="0.25"/>
    </filter>
  </defs>
  <g filter="url(#soft)">
    <path d="M12 61C16 54 24 50 33 52C39 53 43 57 48 57C53 57 57 53 63 52C72 50 80 54 84 61C78 64 69 64 62 61C56 59 52 62 48 62C44 62 40 59 34 61C27 64 18 64 12 61Z" fill="#b8cc95"/>
    <path d="M23 65H73L59 86H37L23 65Z" fill="url(#island)"/>
    <path d="M20 67C31 51 65 51 76 67" stroke="url(#bridgeGlow)" stroke-width="7" stroke-linecap="round"/>
    <path d="M24 68C35 57 61 57 72 68" stroke="#fff6c8" stroke-width="2" stroke-linecap="round" opacity="0.9"/>
    <circle cx="20" cy="67" r="5" fill="#f5b6d2"/>
    <circle cx="76" cy="67" r="5" fill="#a9d4ff"/>
    <circle cx="48" cy="58" r="4" fill="#fff4b8"/>
  </g>
</svg>
